<svg width="12" height="9" viewBox="0 0 12 9" fill="none" xmlns="http://www.w3.org/2000/svg">
<path d="M6.34889 4.89465L4.54903 7.9772L2.7492 4.89465H6.34889ZM6.83106 4.61914H2.26508L4.54903 8.52244L6.83106 4.61914Z" fill="#263238"/>
<path d="M9.47819 1.06065L11.278 4.1432H7.67833L9.47819 1.06065ZM9.47819 0.509644L7.19421 4.41293H11.7621L9.47819 0.509644Z" fill="#263238"/>
<path d="M0.0767822 0.509644L1.99181 3.96211L4.08446 0.596336L0.0767822 0.509644Z" fill="#4CAF4F"/>
<path d="M4.54913 0.812012L6.55786 4.24521H2.5365L4.54913 0.812012Z" fill="#4CAF4F"/>
<path d="M7.07514 4.99487L9.08582 8.52249H4.96881L7.01267 4.99487H7.07514Z" fill="#4CAF4F"/>
<path d="M7.51044 4.78088L9.47816 8.25454L11.4732 4.78088H7.51044Z" fill="#4CAF4F"/>
</svg>
