<svg width="20" height="17" viewBox="0 0 20 17" fill="none" xmlns="http://www.w3.org/2000/svg">
<g clip-path="url(#clip0_212_1127)">
<path d="M19.2992 7.26085C19.3011 7.24693 19.3011 7.23285 19.2992 7.21893C19.301 7.20759 19.301 7.19602 19.2992 7.18465L19.1632 6.20554C19.1436 6.0884 19.0911 5.97891 19.0116 5.88933L18.9883 5.86266L18.9456 5.82075L16.5906 3.83205L16.6567 3.89682C16.6026 3.83342 16.5348 3.78271 16.4581 3.74843C16.3815 3.71414 16.2979 3.69715 16.2137 3.69871H15.4986C15.3824 3.69645 15.2687 3.73269 15.1761 3.80157C15.0788 3.73311 14.9617 3.69705 14.8419 3.69871H14.1268C14.0331 3.69722 13.9406 3.72003 13.8587 3.76486C13.7768 3.80968 13.7084 3.87492 13.6605 3.95396C13.5867 4.06686 13.5589 4.20288 13.5828 4.33494L13.6722 4.95212C13.613 4.91921 13.5459 4.90214 13.4779 4.9026H10.0154C9.89116 4.90336 9.76979 4.93906 9.66563 5.00546C9.56492 5.06726 9.48407 5.15576 9.43248 5.26071L9.16433 5.03594C9.0588 4.94021 8.9195 4.88832 8.77573 4.89117H3.34301C3.21834 4.89339 3.09644 4.92754 2.98939 4.99022C2.84293 5.07426 2.7356 5.21091 2.69015 5.3712L0.964737 11.0287C0.932498 11.1219 0.929326 11.2225 0.955629 11.3175C0.981931 11.4125 1.03652 11.4976 1.11241 11.5621C1.13218 11.5785 1.15295 11.5938 1.17459 11.6078C1.17459 11.6078 1.13961 11.5849 1.12018 11.5659L3.47514 13.5584C3.57476 13.6483 3.70501 13.6986 3.84041 13.6994H9.3159C9.44095 13.6962 9.56293 13.6607 9.66954 13.5965C9.72983 13.5642 9.78377 13.5216 9.82886 13.4708L9.84829 13.4441L9.87938 13.406L9.90269 13.3641L10.1592 13.5813C10.2574 13.6676 10.3848 13.7151 10.5167 13.7146H16.0038C16.1287 13.7105 16.2505 13.6751 16.3574 13.6117C16.4164 13.5775 16.47 13.5351 16.5168 13.486L16.5362 13.4593L16.5673 13.4213C16.5838 13.3971 16.5981 13.3717 16.61 13.345C16.6227 13.322 16.6331 13.2977 16.6411 13.2727L18.215 8.10662V8.0609C18.2169 8.04317 18.2169 8.02529 18.215 8.00756V7.97329C18.2169 7.96192 18.2169 7.95035 18.215 7.93898C18.2167 7.91489 18.2167 7.8907 18.215 7.86659H18.7202C18.7641 7.87055 18.8083 7.87055 18.8523 7.86659H18.8873C18.9157 7.85828 18.9431 7.84676 18.9689 7.83231H19.0078L19.0777 7.77898L19.1088 7.75611L19.1632 7.68753V7.66469L19.2021 7.59991C19.1999 7.58732 19.1999 7.57442 19.2021 7.56183C19.2 7.55564 19.2 7.54896 19.2021 7.54277C19.2103 7.52044 19.2168 7.4975 19.2215 7.47419C19.2197 7.46668 19.2197 7.45884 19.2215 7.45133C19.2196 7.43998 19.2196 7.42839 19.2215 7.41705C19.2215 7.41705 19.2992 7.26846 19.2992 7.26085Z" fill="black"/>
<path d="M8.93502 5.32548C8.95565 5.34377 8.97006 5.36782 8.97631 5.39438C8.98259 5.42095 8.98037 5.44876 8.97001 5.47406L7.24849 11.1278C7.22681 11.1895 7.18246 11.2411 7.12413 11.2725C7.07667 11.3037 7.02173 11.322 6.96478 11.3259H1.49321C1.44649 11.3237 1.40222 11.3047 1.36886 11.2725C1.34901 11.2545 1.33509 11.2312 1.32886 11.2054C1.32262 11.1796 1.32438 11.1526 1.33388 11.1278L3.0593 5.47406C3.07918 5.41155 3.12214 5.35857 3.17977 5.32548C3.22801 5.29659 3.28268 5.27959 3.33909 5.27595H8.81067C8.85703 5.27639 8.90148 5.2941 8.93502 5.32548ZM6.07876 9.98864L7.10857 6.61318H4.22513L3.19919 9.98864H6.07876ZM14.1579 5.38262C14.1766 5.40389 14.1999 5.42076 14.2261 5.43197C14.2524 5.44318 14.2809 5.44845 14.3095 5.44739H15.0206C15.0477 5.44765 15.0744 5.44114 15.0982 5.42847C15.122 5.41581 15.1421 5.3974 15.1566 5.375C15.1692 5.3575 15.1782 5.3377 15.1828 5.31675C15.1875 5.29581 15.1878 5.27416 15.1838 5.25309L15.0439 4.24731C15.0306 4.20076 15.0067 4.15778 14.974 4.12159C14.9553 4.10032 14.932 4.08345 14.9057 4.07224C14.8795 4.06103 14.851 4.05576 14.8224 4.05682H14.1113C14.0842 4.05656 14.0575 4.06307 14.0337 4.07574C14.0099 4.08841 13.9898 4.10681 13.9753 4.12921C13.9481 4.18255 13.9364 4.21683 13.9481 4.24731L14.0918 5.25309C14.0992 5.30207 14.1224 5.34745 14.1579 5.38262ZM16.4157 4.23969C16.4024 4.19314 16.3785 4.15016 16.3458 4.11397C16.3279 4.09278 16.3052 4.07592 16.2796 4.06468C16.254 4.05345 16.2261 4.04815 16.1981 4.0492H15.483C15.4564 4.04846 15.4301 4.05479 15.4068 4.06754C15.3836 4.08028 15.3642 4.09896 15.3509 4.12159C15.3251 4.15539 15.3139 4.19784 15.3198 4.23969L15.4636 5.24547C15.4726 5.29393 15.4955 5.33886 15.5297 5.375C15.5487 5.39586 15.5721 5.41244 15.5982 5.42362C15.6244 5.4348 15.6527 5.4403 15.6812 5.43977H16.3963C16.4229 5.44011 16.449 5.43361 16.4722 5.4209C16.4954 5.4082 16.5148 5.38975 16.5284 5.36739C16.5419 5.35034 16.5514 5.33054 16.5561 5.30945C16.5608 5.28835 16.5606 5.26649 16.5556 5.24547L16.4157 4.23969ZM13.5322 5.7636L13.4623 5.26833H10.0154C9.96124 5.27125 9.90888 5.28836 9.86379 5.31786C9.83517 5.33316 9.81026 5.35437 9.7908 5.38002C9.77136 5.40567 9.75782 5.43515 9.75111 5.46644L9.46353 6.41126C9.45206 6.43487 9.44813 6.46136 9.45229 6.4872C9.45647 6.51304 9.46851 6.53703 9.48685 6.55604C9.51962 6.58623 9.56239 6.60384 9.60732 6.60557H13.7965L12.7667 9.98103H8.58917C8.5353 9.98223 8.48284 9.99806 8.43762 10.0267C8.38266 10.061 8.34252 10.1139 8.32492 10.1753L8.03347 11.1202C8.02395 11.1444 8.02145 11.1707 8.02625 11.1963C8.03107 11.2218 8.04295 11.2456 8.06065 11.2649C8.09241 11.2971 8.13551 11.3162 8.18113 11.3182H13.6683C13.725 11.3135 13.7797 11.2952 13.8276 11.2649C13.885 11.2333 13.928 11.1816 13.9481 11.1202L15.5258 5.95409H13.7499C13.7217 5.95463 13.6937 5.94951 13.6676 5.93902C13.6416 5.92854 13.618 5.91291 13.5983 5.89313C13.5662 5.85858 13.5435 5.81666 13.5322 5.77122V5.7636Z" fill="white"/>
</g>
<defs>
<clipPath id="clip0_212_1127">
<rect width="18.3627" height="10.016" fill="white" transform="translate(0.937988 3.69861)"/>
</clipPath>
</defs>
</svg>
