<svg width="17" height="17" viewBox="0 0 17 17" fill="none" xmlns="http://www.w3.org/2000/svg">
<g clip-path="url(#clip0_212_1121)">
<path fill-rule="evenodd" clip-rule="evenodd" d="M4.75096 2.08032C6.59484 2.08032 8.08962 3.57509 8.08962 5.41899V2.08032H11.4283C13.2722 2.08032 14.767 3.57509 14.767 5.41899C14.767 7.26287 13.2722 8.75765 11.4283 8.75765C13.2722 8.75765 14.767 10.2524 14.767 12.0963C14.767 13.0119 14.3984 13.8414 13.8016 14.4445L13.7891 14.4571L13.778 14.4681C13.1747 15.0658 12.3446 15.435 11.4283 15.435C10.5182 15.435 9.69315 15.0708 9.09089 14.4803C9.08308 14.4726 9.07526 14.4649 9.06748 14.4571C9.06017 14.4498 9.0529 14.4425 9.04565 14.4351C8.45434 13.8327 8.08962 13.0071 8.08962 12.0963C8.08962 13.9402 6.59484 15.435 4.75096 15.435C2.90706 15.435 1.41229 13.9402 1.41229 12.0963V8.75765H4.75096C2.90706 8.75765 1.41229 7.26287 1.41229 5.41899C1.41229 3.57509 2.90706 2.08032 4.75096 2.08032ZM7.42189 5.41899C7.42189 6.89411 6.22608 8.08992 4.75096 8.08992V2.74806C6.22608 2.74806 7.42189 3.94387 7.42189 5.41899ZM14.0992 12.0963C14.0992 10.6212 12.9034 9.42539 11.4283 9.42539C9.95317 9.42539 8.75736 10.6212 8.75736 12.0963H14.0992ZM2.08003 9.42539V12.0963C2.08003 13.5714 3.27584 14.7673 4.75096 14.7673C6.22608 14.7673 7.42189 13.5714 7.42189 12.0963V9.42539H2.08003ZM8.75736 8.08992V2.74806H11.4283C12.9034 2.74806 14.0992 3.94387 14.0992 5.41899C14.0992 6.89411 12.9034 8.08992 11.4283 8.08992H8.75736Z" fill="#263238"/>
</g>
<defs>
<clipPath id="clip0_212_1121">
<rect width="13.3547" height="13.3547" fill="white" transform="translate(1.41229 2.08032)"/>
</clipPath>
</defs>
</svg>
