<svg width="17" height="17" viewBox="0 0 17 17" fill="none" xmlns="http://www.w3.org/2000/svg">
<g clip-path="url(#clip0_212_1124)">
<path fill-rule="evenodd" clip-rule="evenodd" d="M5.17761 5.4062L1.84369 8.7066C2.51053 9.36676 3.2723 9.92311 4.10284 10.3584C4.33241 10.9612 4.69225 11.5265 5.18235 12.0117C7.02627 13.8371 10.0158 13.8371 11.8597 12.0117C12.3498 11.5265 12.7096 10.9612 12.9392 10.3583C13.7697 9.92311 14.5315 9.36676 15.1984 8.7066L11.8671 5.40889C11.8647 5.40642 11.8622 5.40395 11.8597 5.40149C10.0158 3.57613 7.02627 3.57613 5.18235 5.40149C5.18078 5.40306 5.17919 5.40463 5.17761 5.4062ZM11.5407 10.9538C10.5691 11.2784 9.54923 11.4446 8.52102 11.4446C7.49281 11.4446 6.47295 11.2784 5.5014 10.9538C5.60667 11.0921 5.72288 11.2248 5.85009 11.3507C7.32521 12.811 9.71683 12.811 11.192 11.3507C11.3192 11.2248 11.4354 11.0921 11.5407 10.9538ZM5.91856 5.99641C6.16906 6.16024 6.43542 6.30043 6.71413 6.41473C7.28698 6.64962 7.90096 6.77052 8.52102 6.77052C9.14108 6.77052 9.75506 6.64962 10.3279 6.41473C10.6066 6.30043 10.873 6.16023 11.1235 5.9964C9.66678 4.62426 7.37526 4.62426 5.91856 5.99641Z" fill="#3B4158"/>
</g>
<defs>
<clipPath id="clip0_212_1124">
<rect width="13.3547" height="9.34826" fill="white" transform="translate(1.84369 4.03247)"/>
</clipPath>
</defs>
</svg>
