<svg width="60" height="60" viewBox="0 0 60 60" fill="none" xmlns="http://www.w3.org/2000/svg">
<path d="M45.4286 12H14.5714C13.8894 12 13.2354 12.2709 12.7532 12.7532C12.2709 13.2354 12 13.8894 12 14.5714V45.4286C12 46.1106 12.2709 46.7646 12.7532 47.2468C13.2354 47.7291 13.8894 48 14.5714 48H45.4286C46.1106 48 46.7646 47.7291 47.2468 47.2468C47.7291 46.7646 48 46.1106 48 45.4286V14.5714C48 13.8894 47.7291 13.2354 47.2468 12.7532C46.7646 12.2709 46.1106 12 45.4286 12ZM42.8571 17.1429V27.4286H32.5714V17.1429H42.8571ZM27.4286 17.1429V27.4286H17.1429V17.1429H27.4286ZM17.1429 42.8571V32.5714H27.4286V42.8571H17.1429ZM32.5714 42.8571V32.5714H42.8571V42.8571H32.5714Z" fill="#3F5D3E"/>
</svg>
