<svg width="36" height="36" viewBox="0 0 36 36" fill="none" xmlns="http://www.w3.org/2000/svg">
<path d="M33.9 25.2V1.8C33.9 0.675 33.225 0 32.1 0H9.15003C5.32502 0 2.40002 2.925 2.40002 6.75V29.25C2.40002 33.075 5.32502 36 9.15003 36H32.1C33 36 33.9 35.325 33.9 34.2V33.075C33.9 32.625 33.675 32.175 33.225 31.725C33 30.6 33 27.45 33.225 26.55C33.675 26.325 33.9 25.875 33.9 25.2ZM12.525 11.8125C12.525 11.6633 12.5843 11.5202 12.6898 11.4148C12.7953 11.3093 12.9383 11.25 13.0875 11.25H17.025V7.3125C17.025 7.16332 17.0843 7.02024 17.1898 6.91475C17.2953 6.80926 17.4383 6.75 17.5875 6.75H20.9625C21.1117 6.75 21.2548 6.80926 21.3603 6.91475C21.4658 7.02024 21.525 7.16332 21.525 7.3125V11.25H25.4625C25.6117 11.25 25.7548 11.3093 25.8603 11.4148C25.9658 11.5202 26.025 11.6633 26.025 11.8125V15.1875C26.025 15.3367 25.9658 15.4798 25.8603 15.5852C25.7548 15.6907 25.6117 15.75 25.4625 15.75H21.525V19.6875C21.525 19.8367 21.4658 19.9798 21.3603 20.0852C21.2548 20.1907 21.1117 20.25 20.9625 20.25H17.5875C17.4383 20.25 17.2953 20.1907 17.1898 20.0852C17.0843 19.9798 17.025 19.8367 17.025 19.6875V15.75H13.0875C12.9383 15.75 12.7953 15.6907 12.6898 15.5852C12.5843 15.4798 12.525 15.3367 12.525 15.1875V11.8125ZM29.175 31.5H9.15003C7.80002 31.5 6.90002 30.6 6.90002 29.25C6.90002 27.9 8.02502 27 9.15003 27H29.175V31.5Z" fill="#C24E40"/>
</svg>
